<mxfile host="app.diagrams.net" agent="Mozilla/5.0 (Windows NT 10.0; Win64; x64) AppleWebKit/537.36 (KHTML, like Gecko) Chrome/135.0.0.0 Safari/537.36 Edg/135.0.0.0" version="26.2.13">
  <diagram id="C5RBs43oDa-KdzZeNtuy" name="Page-1">
    <mxGraphModel dx="1036" dy="570" grid="1" gridSize="10" guides="1" tooltips="1" connect="1" arrows="1" fold="1" page="1" pageScale="1" pageWidth="827" pageHeight="1169" math="0" shadow="0">
      <root>
        <mxCell id="WIyWlLk6GJQsqaUBKTNV-0" />
        <mxCell id="WIyWlLk6GJQsqaUBKTNV-1" parent="WIyWlLk6GJQsqaUBKTNV-0" />
        <mxCell id="WIyWlLk6GJQsqaUBKTNV-2" value="" style="rounded=0;html=1;jettySize=auto;orthogonalLoop=1;fontSize=11;endArrow=block;endFill=0;endSize=8;strokeWidth=1;shadow=0;labelBackgroundColor=none;edgeStyle=orthogonalEdgeStyle;entryX=0.5;entryY=0;entryDx=0;entryDy=0;" parent="WIyWlLk6GJQsqaUBKTNV-1" source="WIyWlLk6GJQsqaUBKTNV-3" target="qOm57rsCKkdoiQt-sKiJ-0" edge="1">
          <mxGeometry relative="1" as="geometry">
            <mxPoint x="220" y="170" as="targetPoint" />
          </mxGeometry>
        </mxCell>
        <mxCell id="WIyWlLk6GJQsqaUBKTNV-3" value="start" style="rounded=1;whiteSpace=wrap;html=1;fontSize=12;glass=0;strokeWidth=1;shadow=0;" parent="WIyWlLk6GJQsqaUBKTNV-1" vertex="1">
          <mxGeometry x="160" y="80" width="120" height="40" as="geometry" />
        </mxCell>
        <mxCell id="qOm57rsCKkdoiQt-sKiJ-2" style="edgeStyle=orthogonalEdgeStyle;rounded=0;orthogonalLoop=1;jettySize=auto;html=1;exitX=0.5;exitY=1;exitDx=0;exitDy=0;entryX=0.5;entryY=0;entryDx=0;entryDy=0;" edge="1" parent="WIyWlLk6GJQsqaUBKTNV-1" source="qOm57rsCKkdoiQt-sKiJ-0" target="qOm57rsCKkdoiQt-sKiJ-1">
          <mxGeometry relative="1" as="geometry" />
        </mxCell>
        <mxCell id="qOm57rsCKkdoiQt-sKiJ-0" value="set up arduino" style="rounded=0;whiteSpace=wrap;html=1;" vertex="1" parent="WIyWlLk6GJQsqaUBKTNV-1">
          <mxGeometry x="160" y="190" width="120" height="60" as="geometry" />
        </mxCell>
        <mxCell id="qOm57rsCKkdoiQt-sKiJ-4" style="edgeStyle=orthogonalEdgeStyle;rounded=0;orthogonalLoop=1;jettySize=auto;html=1;exitX=0.5;exitY=1;exitDx=0;exitDy=0;entryX=0.5;entryY=0;entryDx=0;entryDy=0;" edge="1" parent="WIyWlLk6GJQsqaUBKTNV-1" source="qOm57rsCKkdoiQt-sKiJ-1" target="qOm57rsCKkdoiQt-sKiJ-5">
          <mxGeometry relative="1" as="geometry">
            <mxPoint x="220" y="410" as="targetPoint" />
          </mxGeometry>
        </mxCell>
        <mxCell id="qOm57rsCKkdoiQt-sKiJ-1" value="detect temperature" style="rounded=0;whiteSpace=wrap;html=1;" vertex="1" parent="WIyWlLk6GJQsqaUBKTNV-1">
          <mxGeometry x="160" y="300" width="120" height="60" as="geometry" />
        </mxCell>
        <mxCell id="qOm57rsCKkdoiQt-sKiJ-7" style="edgeStyle=orthogonalEdgeStyle;rounded=0;orthogonalLoop=1;jettySize=auto;html=1;exitX=0.5;exitY=1;exitDx=0;exitDy=0;" edge="1" parent="WIyWlLk6GJQsqaUBKTNV-1" source="qOm57rsCKkdoiQt-sKiJ-5" target="qOm57rsCKkdoiQt-sKiJ-6">
          <mxGeometry relative="1" as="geometry" />
        </mxCell>
        <mxCell id="qOm57rsCKkdoiQt-sKiJ-8" value="yes" style="edgeLabel;html=1;align=center;verticalAlign=middle;resizable=0;points=[];" vertex="1" connectable="0" parent="qOm57rsCKkdoiQt-sKiJ-7">
          <mxGeometry x="-0.264" relative="1" as="geometry">
            <mxPoint x="-20" as="offset" />
          </mxGeometry>
        </mxCell>
        <mxCell id="qOm57rsCKkdoiQt-sKiJ-10" style="edgeStyle=orthogonalEdgeStyle;rounded=0;orthogonalLoop=1;jettySize=auto;html=1;exitX=1;exitY=0.5;exitDx=0;exitDy=0;" edge="1" parent="WIyWlLk6GJQsqaUBKTNV-1" source="qOm57rsCKkdoiQt-sKiJ-5" target="qOm57rsCKkdoiQt-sKiJ-9">
          <mxGeometry relative="1" as="geometry" />
        </mxCell>
        <mxCell id="qOm57rsCKkdoiQt-sKiJ-16" value="no" style="edgeLabel;html=1;align=center;verticalAlign=middle;resizable=0;points=[];" vertex="1" connectable="0" parent="qOm57rsCKkdoiQt-sKiJ-10">
          <mxGeometry x="0.0708" y="-2" relative="1" as="geometry">
            <mxPoint x="-10" y="-12" as="offset" />
          </mxGeometry>
        </mxCell>
        <mxCell id="qOm57rsCKkdoiQt-sKiJ-5" value="18°C≤temprature≤24°C?" style="rhombus;whiteSpace=wrap;html=1;" vertex="1" parent="WIyWlLk6GJQsqaUBKTNV-1">
          <mxGeometry x="135" y="420" width="170" height="100" as="geometry" />
        </mxCell>
        <mxCell id="qOm57rsCKkdoiQt-sKiJ-18" style="edgeStyle=orthogonalEdgeStyle;rounded=0;orthogonalLoop=1;jettySize=auto;html=1;exitX=0.5;exitY=1;exitDx=0;exitDy=0;entryX=0;entryY=0.5;entryDx=0;entryDy=0;" edge="1" parent="WIyWlLk6GJQsqaUBKTNV-1" source="qOm57rsCKkdoiQt-sKiJ-6" target="qOm57rsCKkdoiQt-sKiJ-1">
          <mxGeometry relative="1" as="geometry">
            <Array as="points">
              <mxPoint x="220" y="650" />
              <mxPoint x="70" y="650" />
              <mxPoint x="70" y="330" />
            </Array>
          </mxGeometry>
        </mxCell>
        <mxCell id="qOm57rsCKkdoiQt-sKiJ-6" value="green LED light" style="rounded=0;whiteSpace=wrap;html=1;" vertex="1" parent="WIyWlLk6GJQsqaUBKTNV-1">
          <mxGeometry x="160" y="570" width="120" height="60" as="geometry" />
        </mxCell>
        <mxCell id="qOm57rsCKkdoiQt-sKiJ-13" style="edgeStyle=orthogonalEdgeStyle;rounded=0;orthogonalLoop=1;jettySize=auto;html=1;exitX=0.5;exitY=1;exitDx=0;exitDy=0;entryX=0.5;entryY=0;entryDx=0;entryDy=0;" edge="1" parent="WIyWlLk6GJQsqaUBKTNV-1" source="qOm57rsCKkdoiQt-sKiJ-9" target="qOm57rsCKkdoiQt-sKiJ-11">
          <mxGeometry relative="1" as="geometry" />
        </mxCell>
        <mxCell id="qOm57rsCKkdoiQt-sKiJ-15" value="yes" style="edgeLabel;html=1;align=center;verticalAlign=middle;resizable=0;points=[];" vertex="1" connectable="0" parent="qOm57rsCKkdoiQt-sKiJ-13">
          <mxGeometry x="-0.2533" y="3" relative="1" as="geometry">
            <mxPoint x="17" as="offset" />
          </mxGeometry>
        </mxCell>
        <mxCell id="qOm57rsCKkdoiQt-sKiJ-14" style="edgeStyle=orthogonalEdgeStyle;rounded=0;orthogonalLoop=1;jettySize=auto;html=1;exitX=1;exitY=0.5;exitDx=0;exitDy=0;entryX=0;entryY=0.5;entryDx=0;entryDy=0;" edge="1" parent="WIyWlLk6GJQsqaUBKTNV-1" source="qOm57rsCKkdoiQt-sKiJ-9" target="qOm57rsCKkdoiQt-sKiJ-12">
          <mxGeometry relative="1" as="geometry" />
        </mxCell>
        <mxCell id="qOm57rsCKkdoiQt-sKiJ-9" value="24°C&amp;lt;temperature?" style="rhombus;whiteSpace=wrap;html=1;" vertex="1" parent="WIyWlLk6GJQsqaUBKTNV-1">
          <mxGeometry x="370" y="430" width="160" height="80" as="geometry" />
        </mxCell>
        <mxCell id="qOm57rsCKkdoiQt-sKiJ-19" style="edgeStyle=orthogonalEdgeStyle;rounded=0;orthogonalLoop=1;jettySize=auto;html=1;exitX=0.5;exitY=1;exitDx=0;exitDy=0;entryX=1;entryY=0.5;entryDx=0;entryDy=0;" edge="1" parent="WIyWlLk6GJQsqaUBKTNV-1" source="qOm57rsCKkdoiQt-sKiJ-11" target="qOm57rsCKkdoiQt-sKiJ-1">
          <mxGeometry relative="1" as="geometry">
            <Array as="points">
              <mxPoint x="450" y="650" />
              <mxPoint x="740" y="650" />
              <mxPoint x="740" y="330" />
            </Array>
          </mxGeometry>
        </mxCell>
        <mxCell id="qOm57rsCKkdoiQt-sKiJ-11" value="The red LED flashes intermittently at intervals of 0.25 seconds" style="rounded=0;whiteSpace=wrap;html=1;" vertex="1" parent="WIyWlLk6GJQsqaUBKTNV-1">
          <mxGeometry x="390" y="570" width="120" height="60" as="geometry" />
        </mxCell>
        <mxCell id="qOm57rsCKkdoiQt-sKiJ-21" style="edgeStyle=orthogonalEdgeStyle;rounded=0;orthogonalLoop=1;jettySize=auto;html=1;exitX=1;exitY=0.5;exitDx=0;exitDy=0;entryX=1;entryY=0.5;entryDx=0;entryDy=0;" edge="1" parent="WIyWlLk6GJQsqaUBKTNV-1" source="qOm57rsCKkdoiQt-sKiJ-12" target="qOm57rsCKkdoiQt-sKiJ-1">
          <mxGeometry relative="1" as="geometry" />
        </mxCell>
        <mxCell id="qOm57rsCKkdoiQt-sKiJ-12" value="The yellow LED flashes intermittently at intervals of 0.5 seconds" style="rounded=0;whiteSpace=wrap;html=1;" vertex="1" parent="WIyWlLk6GJQsqaUBKTNV-1">
          <mxGeometry x="600" y="440" width="120" height="60" as="geometry" />
        </mxCell>
      </root>
    </mxGraphModel>
  </diagram>
</mxfile>
